<?xml version="1.0" encoding="UTF-8"?>
<svg width="30px" height="30px" viewBox="0 0 30 30" version="1.1" xmlns="http://www.w3.org/2000/svg" xmlns:xlink="http://www.w3.org/1999/xlink">
    <!-- Generator: Sketch 61.1 (89650) - https://sketch.com -->
    <title>icon/interface/48/my business48@3x</title>
    <desc>Created with Sketch.</desc>
    <g id="Symbols" stroke="none" stroke-width="1" fill="none" fill-rule="evenodd">
        <g id="Business-Description" transform="translate(-12.000000, -47.000000)" fill="#30BB80" fill-rule="nonzero">
            <g id="Group-3">
                <g id="icon/interface/48/my-business48" transform="translate(9.000000, 44.000000)">
                    <path d="M29.4,33 L6.6,33 C5.445,33 4.5,32.055 4.5,30.9 L4.5,18 C4.5,17.9325 4.5075,17.865 4.53,17.7975 C3.585,16.815 3.0075,15.48 3,14.0175 C3,13.9575 3,13.905 3.015,13.845 C3.03,13.785 3.045,13.7325 3.0675,13.68 L7.02,4.68 C7.4325,3.7425 8.565,3 9.6,3 L14.2425,3 C14.25,3 14.2575,3 14.2575,3 L21.7425,3 C21.75,3 21.75,3 21.7575,3 L26.4,3 C27.45,3 28.56,3.7275 28.98,4.6875 L32.9325,13.6875 C32.955,13.74 32.9775,13.7925 32.985,13.8525 C33,13.905 33,13.9575 33,14.0175 C32.9925,15.48 32.415,16.815 31.47,17.7975 C31.4925,17.865 31.5,17.9325 31.5,18 L31.5,30.9 C31.5,32.055 30.555,33 29.4,33 Z M25.5,31.5 L29.4,31.5 C29.73,31.5 30,31.23 30,30.9 L30,18.9 C28.6575,19.5825 26.91,19.68 25.5,19.125 L25.5,31.5 Z M12,31.5 L24,31.5 L24,18.375 C24,18.33 24,18.2925 24.0075,18.2475 C23.505,17.835 23.0775,17.3325 22.7475,16.77 C21.795,18.405 20.025,19.5 18,19.5 C15.975,19.5 14.205,18.405 13.2525,16.77 C12.9225,17.3325 12.495,17.835 11.9925,18.2475 C12,18.285 12,18.33 12,18.3675 L12,31.5 Z M6,18.9 L6,30.9 C6,31.23 6.27,31.5 6.6,31.5 L10.5,31.5 L10.5,19.125 C9.09,19.68 7.3425,19.5825 6,18.9 Z M23.4975,14.01 C23.505,16.215 25.2975,18 27.5025,18 C29.655,18 31.4175,16.29 31.5,14.1525 L27.6075,5.2875 C27.4275,4.8825 26.8425,4.5 26.4,4.5 L22.575,4.5 L23.49,13.92 C23.49,13.935 23.49,13.95 23.49,13.965 C23.4975,13.98 23.4975,13.995 23.4975,14.01 Z M14.0025,14.0325 C14.0175,16.2225 15.8025,18 18,18 C20.19,18 21.9825,16.2225 21.9975,14.0325 L21.0675,4.5 L14.925,4.5 L14.0025,14.0325 Z M4.5,14.1525 C4.5825,16.29 6.345,18 8.4975,18 C10.7025,18 12.495,16.2075 12.495,14.01 C12.495,13.995 12.495,13.98 12.495,13.965 C12.495,13.95 12.495,13.935 12.495,13.92 L13.425,4.5 L9.6,4.5 C9.1575,4.5 8.5725,4.8825 8.3925,5.2875 L4.5,14.1525 Z M20.25,25.5 L15.75,25.5 C15.3375,25.5 15,25.1625 15,24.75 C15,24.3375 15.3375,24 15.75,24 L20.25,24 C20.6625,24 21,24.3375 21,24.75 C21,25.1625 20.6625,25.5 20.25,25.5 Z" id="Shape"></path>
                </g>
            </g>
        </g>
    </g>
</svg>